<?xml version="1.0" encoding="UTF-8" standalone="no"?>
<!-- Created with Inkscape (http://www.inkscape.org/) -->

<svg
   width="74.083267mm"
   height="95.24987mm"
   viewBox="0 0 74.083268 95.249871"
   version="1.1"
   id="svg25059"
   inkscape:version="1.1.2 (b8e25be833, 2022-02-05)"
   sodipodi:docname="U.svg"
   xmlns:inkscape="http://www.inkscape.org/namespaces/inkscape"
   xmlns:sodipodi="http://sodipodi.sourceforge.net/DTD/sodipodi-0.dtd"
   xmlns="http://www.w3.org/2000/svg"
   xmlns:svg="http://www.w3.org/2000/svg">
  <sodipodi:namedview
     id="namedview25061"
     pagecolor="#ffffff"
     bordercolor="#666666"
     borderopacity="1.0"
     inkscape:pageshadow="2"
     inkscape:pageopacity="0.0"
     inkscape:pagecheckerboard="0"
     inkscape:document-units="mm"
     showgrid="false"
     fit-margin-top="0"
     fit-margin-left="0"
     fit-margin-right="0"
     fit-margin-bottom="0"
     inkscape:zoom="0.77771465"
     inkscape:cx="292.52374"
     inkscape:cy="385.74559"
     inkscape:window-width="2560"
     inkscape:window-height="1334"
     inkscape:window-x="-11"
     inkscape:window-y="-11"
     inkscape:window-maximized="1"
     inkscape:current-layer="layer1" />
  <defs
     id="defs25056" />
  <g
     inkscape:label="Camada 1"
     inkscape:groupmode="layer"
     id="layer1"
     transform="translate(-27.568127,-46.325533)">
    <g
       aria-label="U"
       transform="scale(1.000261,0.99973905)"
       id="text26838"
       style="font-size:115.906px;line-height:1.25;font-family:'Kaushan Script';-inkscape-font-specification:'Kaushan Script';stroke-width:0.724411">
      <path
         d="m 65.114477,53.871514 q -5.099863,6.838454 -9.272479,15.06778 -4.172616,8.229326 -7.186172,16.922276 -2.89765,8.577044 -4.520334,17.03818 -1.506778,8.34523 -1.506778,15.64731 0,9.04067 2.665838,13.09738 2.665838,4.05671 9.156574,4.05671 7.533889,0 13.213283,-5.21577 5.679394,-5.33168 10.663352,-14.60416 3.245368,-6.02711 5.563488,-13.21328 2.31812,-7.186172 3.708992,-14.720062 1.506778,-7.649796 2.202214,-15.299592 0.695436,-7.765702 0.695436,-14.835968 0,-4.520334 -0.115906,-6.606642 -0.115906,-2.086308 -0.347718,-3.361273 0.347718,0 1.73859,0.231812 1.390872,0.231811 3.129462,0.579529 1.854496,0.347718 3.593086,0.927248 1.854495,0.57953 3.129465,1.274966 -0.57953,8.808856 -2.202217,18.197242 -1.506778,9.388386 -4.05671,18.54496 -2.549932,9.156574 -5.911206,17.61771 -3.361274,8.46114 -7.53389,15.18369 -6.143018,9.96791 -13.792814,15.5314 -7.649796,5.6794 -18.081335,5.6794 -10.663352,0 -16.574558,-6.25893 -5.911206,-6.14302 -5.911206,-18.77677 0,-7.30208 1.622684,-16.45865 1.622684,-9.272482 4.288522,-18.776774 2.781744,-9.620198 6.37483,-18.660866 3.593086,-9.156574 7.53389,-16.342745 1.970402,0.115906 4.63624,0.811342 2.665838,0.695436 5.21577,1.854495 2.549932,1.043154 4.636239,2.434026 2.202214,1.274966 3.245368,2.434026 z"
         id="path823" />
    </g>
  </g>
</svg>
